<svg width="16" height="16" viewBox="0 0 16 16" fill="none" xmlns="http://www.w3.org/2000/svg">
<g opacity="0.7">
<g clip-path="url(#clip0_0_459)">
<path d="M0.842102 7.68025C3.11556 7.71631 5.36395 7.20149 7.39521 6.17977C9.16783 5.2918 10.733 4.03961 11.9885 2.50513" stroke="white" stroke-width="1.68421" stroke-linecap="round" stroke-linejoin="round"/>
<path d="M3.17517 12.6838C4.5183 11.0315 6.21856 9.70511 8.14812 8.80457C10.0776 7.90393 12.1863 7.45251 14.3155 7.48423" stroke="white" stroke-width="1.68421" stroke-linecap="round" stroke-linejoin="round"/>
<path d="M3.71466 2.07031C5.20175 3.18339 6.45114 4.58272 7.3893 6.18591C7.85321 6.96151 8.23694 7.78233 8.53459 8.6357C9.1548 10.3848 9.42335 12.2392 9.32466 14.0925" stroke="white" stroke-width="1.68421" stroke-linecap="round" stroke-linejoin="round"/>
<path d="M7.57894 14.3191C11.2996 14.3191 14.3158 11.303 14.3158 7.5823C14.3158 3.86164 11.2996 0.845459 7.57894 0.845459C3.85829 0.845459 0.842102 3.86164 0.842102 7.5823C0.842102 11.303 3.85829 14.3191 7.57894 14.3191Z" stroke="white" stroke-width="1.68421" stroke-linecap="round" stroke-linejoin="round"/>
</g>
</g>
<defs>
<clipPath id="clip0_0_459">
<rect width="15.1579" height="16" fill="white"/>
</clipPath>
</defs>
</svg>
