<svg width="26" height="26" viewBox="0 0 26 26" fill="none" xmlns="http://www.w3.org/2000/svg">
<path d="M23.7462 12.5668C21.5579 7.486 17.4412 4.3335 12.9995 4.3335C8.55785 4.3335 4.44118 7.486 2.25285 12.5668C2.1932 12.7035 2.16241 12.851 2.16241 13.0002C2.16241 13.1493 2.1932 13.2968 2.25285 13.4335C4.44118 18.5143 8.55785 21.6668 12.9995 21.6668C17.4412 21.6668 21.5579 18.5143 23.7462 13.4335C23.8058 13.2968 23.8367 13.1493 23.8367 13.0002C23.8367 12.851 23.8058 12.7035 23.7462 12.5668ZM12.9995 19.5002C9.56535 19.5002 6.31535 17.0193 4.44118 13.0002C6.31535 8.981 9.56535 6.50017 12.9995 6.50017C16.4337 6.50017 19.6837 8.981 21.5579 13.0002C19.6837 17.0193 16.4337 19.5002 12.9995 19.5002ZM12.9995 8.66683C12.1425 8.66683 11.3047 8.92098 10.5921 9.39713C9.87943 9.87328 9.32402 10.5501 8.99604 11.3419C8.66806 12.1337 8.58225 13.005 8.74944 13.8456C8.91665 14.6861 9.32936 15.4583 9.93538 16.0643C10.5414 16.6703 11.3135 17.083 12.1541 17.2502C12.9947 17.4175 13.866 17.3316 14.6578 17.0037C15.4496 16.6757 16.1264 16.1202 16.6025 15.4076C17.0787 14.695 17.3329 13.8572 17.3329 13.0002C17.3329 11.8509 16.8763 10.7487 16.0637 9.93603C15.2509 9.12338 14.1488 8.66683 12.9995 8.66683ZM12.9995 15.1668C12.571 15.1668 12.1521 15.0398 11.7958 14.8017C11.4395 14.5636 11.1618 14.2252 10.9978 13.8293C10.8338 13.4334 10.7909 12.9978 10.8745 12.5775C10.9581 12.1572 11.1644 11.7711 11.4675 11.4681C11.7705 11.1651 12.1565 10.9587 12.5768 10.8751C12.9971 10.7915 13.4328 10.8344 13.8287 10.9984C14.2246 11.1624 14.563 11.4401 14.801 11.7964C15.0391 12.1527 15.1662 12.5716 15.1662 13.0002C15.1662 13.5748 14.9379 14.1259 14.5316 14.5322C14.1253 14.9386 13.5741 15.1668 12.9995 15.1668Z" fill="#BAC1CE"/>
</svg>
