<svg width="20" height="20" viewBox="0 0 20 20" fill="none" xmlns="http://www.w3.org/2000/svg">
<path d="M9.44998 1.01767C9.37966 1.02646 9.15993 1.05722 8.96658 1.08359C6.9319 1.35165 5.02029 2.5953 3.89967 4.37949C2.33962 6.858 2.46266 10.1275 4.19411 12.4478C4.47096 12.817 9.31374 18.464 9.63015 18.7891C9.79274 18.9561 9.84987 18.987 9.99489 18.987C10.1048 18.987 10.2058 18.9517 10.2674 18.899C10.364 18.8111 15.2508 13.1422 15.6462 12.6588C16.7493 11.3053 17.3294 9.38485 17.1711 7.63583C17.0789 6.63828 16.8899 5.94833 16.4813 5.0914C15.4573 2.95565 13.4973 1.48788 11.1463 1.09677C10.7639 1.03085 9.69166 0.982513 9.44998 1.01767ZM11.2957 2.04159C12.9656 2.41074 14.4114 3.41269 15.3255 4.84092C15.6726 5.38583 15.9934 6.17245 16.156 6.87558C16.2703 7.36777 16.3142 8.52353 16.2439 9.03769C16.0901 10.1275 15.6595 11.1602 15.0179 11.9952C14.6707 12.4478 10.0432 17.8223 9.99929 17.8223C9.94216 17.8223 5.02029 12.0787 4.77859 11.7271C4.34791 11.0943 3.99196 10.2506 3.81617 9.4288C3.70192 8.89707 3.70632 7.4996 3.82057 6.96787C4.30397 4.73984 5.84206 2.98642 7.96022 2.25253C8.33815 2.12069 8.80836 2.01083 9.27419 1.94052C9.61256 1.89218 10.9089 1.9537 11.2957 2.04159Z" fill="#FF4A31"/>
<path d="M9.60254 5.07396C8.01611 5.29809 6.86035 6.60765 6.86035 8.19848C6.86035 9.42455 7.51074 10.4705 8.61378 11.011C9.10156 11.2527 9.44434 11.3318 9.99805 11.3318C10.5518 11.3318 10.8945 11.2527 11.3823 11.011C12.4854 10.4705 13.1357 9.42455 13.1314 8.19848C13.1314 7.64476 13.0523 7.30639 12.8149 6.8142C12.5029 6.18578 12.0107 5.6892 11.3735 5.3684C10.8945 5.13109 10.1299 5.00365 9.60254 5.07396ZM10.5474 6.02318C11.5361 6.28246 12.2393 7.18334 12.2393 8.19848C12.2393 9.44213 11.2285 10.4397 9.97608 10.4397C8.76319 10.4397 7.75684 9.42015 7.75684 8.19848C7.75684 7.19653 8.45556 6.29125 9.43115 6.02758C9.74756 5.94408 10.2266 5.93969 10.5474 6.02318Z" fill="#FF4A31"/>
</svg>
