<svg width="16" height="16" viewBox="0 0 16 16" fill="none" xmlns="http://www.w3.org/2000/svg">
<path d="M15.1111 1.73204C15.1111 1.73204 14.0897 1.87084 13.0813 1.96104C12.6919 1.4805 12.1744 1.13989 11.599 0.985307C11.0234 0.830724 10.4174 0.869609 9.86323 1.09671C9.30892 1.3238 8.83296 1.72816 8.49973 2.25508C8.16651 2.782 7.99207 3.40606 8.00003 4.04287V4.73682C6.86338 4.76766 5.73727 4.49613 4.72211 3.94643C3.70694 3.39672 2.83425 2.58593 2.18185 1.58631C2.18185 1.58631 -0.404013 7.8318 5.41417 10.6075C4.08436 11.5813 2.49722 12.0681 0.888916 11.9954C6.70709 15.4651 13.8182 11.9954 13.8182 3.98736C13.817 3.7941 13.7997 3.60133 13.7665 3.41139C14.2496 2.88495 14.6989 2.32388 15.1111 1.73204Z" stroke="white" stroke-width="1.77778" stroke-linecap="round" stroke-linejoin="round"/>
</svg>
