<svg width="31" height="31" viewBox="0 0 31 31" fill="none" xmlns="http://www.w3.org/2000/svg">
<g clip-path="url(#clip0_10_541)">
<path d="M30.6243 15.7902C30.6243 14.5202 30.5212 13.5934 30.2983 12.6323H15.7955V18.3646H24.3083C24.1367 19.7892 23.2099 21.9346 21.1503 23.3762L21.1214 23.5681L25.7069 27.1205L26.0246 27.1523C28.9423 24.4576 30.6243 20.4929 30.6243 15.7902Z" fill="#4285F4"/>
<path d="M15.7954 30.8931C19.966 30.8931 23.4673 29.52 26.0247 27.1516L21.1503 23.3756C19.846 24.2853 18.0953 24.9203 15.7954 24.9203C11.7107 24.9203 8.24375 22.2258 7.0079 18.5014L6.82674 18.5168L2.05866 22.2068L1.99631 22.3802C4.53641 27.4261 9.75399 30.8931 15.7954 30.8931Z" fill="#34A853"/>
<path d="M7.00798 18.5017C6.68189 17.5406 6.49317 16.5107 6.49317 15.4466C6.49317 14.3825 6.68189 13.3527 6.99083 12.3916L6.98219 12.1869L2.15435 8.43756L1.99639 8.5127C0.949495 10.6066 0.348781 12.958 0.348781 15.4466C0.348781 17.9353 0.949495 20.2865 1.99639 22.3805L7.00798 18.5017Z" fill="#FBBC05"/>
<path d="M15.7954 5.97271C18.696 5.97271 20.6525 7.22561 21.7681 8.27262L26.1276 4.01615C23.4502 1.52753 19.966 0 15.7954 0C9.75399 0 4.53641 3.46691 1.99631 8.51281L6.99074 12.3917C8.24375 8.66734 11.7107 5.97271 15.7954 5.97271Z" fill="#EB4335"/>
</g>
<defs>
<clipPath id="clip0_10_541">
<rect width="30.4688" height="30.4688" fill="white" transform="scale(1.01744)"/>
</clipPath>
</defs>
</svg>
