<svg width="16" height="16" viewBox="0 0 16 16" fill="none" xmlns="http://www.w3.org/2000/svg">
<g opacity="0.7">
<g clip-path="url(#clip0_0_450)">
<path d="M4.51626 8.84385C4.32643 8.45084 4.23201 8.01862 4.24066 7.58224C4.27883 6.73413 4.6515 5.93569 5.2771 5.36176C5.90268 4.78783 6.7302 4.48517 7.57846 4.52005C8.20622 4.50363 8.826 4.66368 9.36731 4.98197C9.90862 5.30027 10.3498 5.76406 10.6407 6.32062C10.8305 6.71363 10.9249 7.14588 10.9163 7.58224C10.8781 8.43038 10.5054 9.22878 9.87981 9.80276C9.25421 10.3767 8.42668 10.6793 7.57846 10.6444C7.07374 10.647 6.57444 10.5404 6.11473 10.3321" stroke="white" stroke-width="1.68421" stroke-linecap="round" stroke-linejoin="round"/>
<path d="M5.21545 13.8905L6.11574 10.3323L6.72206 7.93763L6.96703 6.96997" stroke="white" stroke-width="1.68421" stroke-linecap="round" stroke-linejoin="round"/>
<path d="M7.57894 14.3191C11.2996 14.3191 14.3158 11.303 14.3158 7.5823C14.3158 3.86164 11.2996 0.845459 7.57894 0.845459C3.85829 0.845459 0.842102 3.86164 0.842102 7.5823C0.842102 11.303 3.85829 14.3191 7.57894 14.3191Z" stroke="white" stroke-width="1.68421" stroke-linecap="round" stroke-linejoin="round"/>
</g>
</g>
<defs>
<clipPath id="clip0_0_450">
<rect width="15.1579" height="16" fill="white"/>
</clipPath>
</defs>
</svg>
