<svg width="20" height="20" viewBox="0 0 20 20" fill="none" xmlns="http://www.w3.org/2000/svg">
<path fill-rule="evenodd" clip-rule="evenodd" d="M0.375015 6.61471H4.5105V19.9206H0.375015V6.61471ZM2.4434 0.000429781C3.76574 0.000429781 4.84011 1.0748 4.84011 2.39714C4.84011 3.72077 3.76574 4.79558 2.4434 4.79558C2.12472 4.80161 1.80804 4.74405 1.51188 4.62628C1.2157 4.50849 0.945985 4.33286 0.718486 4.10962C0.490986 3.88639 0.310271 3.62004 0.186905 3.32616C0.0635399 3.03226 0 2.71673 0 2.398C0 2.07927 0.0635399 1.76374 0.186905 1.46985C0.310271 1.17596 0.490986 0.909617 0.718486 0.686383C0.945985 0.463151 1.2157 0.28751 1.51188 0.169731C1.80804 0.0519511 2.12472 -0.00560418 2.4434 0.000429781ZM7.10447 6.61427H11.0711V8.43255H11.1261C11.6783 7.38653 13.0272 6.2838 15.039 6.2838C19.2264 6.2838 20 9.03979 20 12.6226V19.9206H15.867V13.4498C15.867 11.9071 15.8387 9.92206 13.7183 9.92206C11.5666 9.92206 11.2361 11.6028 11.2361 13.3386V19.9206H7.10403V6.61471L7.10447 6.61427Z" fill="white"/>
</svg>
