<svg width="24" height="24" viewBox="0 0 24 24" fill="none" xmlns="http://www.w3.org/2000/svg">
<path d="M17.0028 10.9963H9.41282L12.7128 7.70628C12.9011 7.51798 13.0069 7.26258 13.0069 6.99628C13.0069 6.72998 12.9011 6.47458 12.7128 6.28628C12.5245 6.09798 12.2691 5.99219 12.0028 5.99219C11.7365 5.99219 11.4811 6.09798 11.2928 6.28628L6.29283 11.2863C6.20179 11.3814 6.13042 11.4935 6.08283 11.6163C5.98281 11.8597 5.98281 12.1328 6.08283 12.3763C6.13042 12.499 6.20179 12.6112 6.29283 12.7063L11.2928 17.7063C11.3858 17.8 11.4964 17.8744 11.6183 17.9252C11.7401 17.976 11.8708 18.0021 12.0028 18.0021C12.1348 18.0021 12.2655 17.976 12.3874 17.9252C12.5093 17.8744 12.6199 17.8 12.7128 17.7063C12.8066 17.6133 12.881 17.5027 12.9317 17.3809C12.9825 17.259 13.0086 17.1283 13.0086 16.9963C13.0086 16.8643 12.9825 16.7336 12.9317 16.6117C12.881 16.4899 12.8066 16.3793 12.7128 16.2863L9.41282 12.9963H17.0028C17.268 12.9963 17.5224 12.8909 17.7099 12.7034C17.8975 12.5158 18.0028 12.2615 18.0028 11.9963C18.0028 11.7311 17.8975 11.4767 17.7099 11.2892C17.5224 11.1016 17.268 10.9963 17.0028 10.9963Z" fill="white"/>
</svg>
