<svg width="265" height="75" viewBox="0 0 265 75" fill="none" xmlns="http://www.w3.org/2000/svg">
<g clip-path="url(#clip0_1_355)">
<path d="M34.294 4.86215L30.2902 4.59893L28.7824 0.810852L27.2745 4.59893L23.2751 4.86215L26.3426 7.46677L25.3361 11.4178L28.7824 9.23943L32.2287 11.4178L31.2221 7.46677L34.294 4.86215Z" fill="#FFD400"/>
</g>
<g clip-path="url(#clip1_1_355)">
<path d="M50.21 4.86215L46.2062 4.59893L44.6984 0.810852L43.1906 4.59893L39.1912 4.86215L42.2587 7.46677L41.2521 11.4178L44.6984 9.23943L48.1447 11.4178L47.1381 7.46677L50.21 4.86215Z" fill="#FFD400"/>
</g>
<g clip-path="url(#clip2_1_355)">
<path d="M66.1253 4.86215L62.1215 4.59893L60.6137 0.810852L59.1058 4.59893L55.1064 4.86215L58.1739 7.46677L57.1674 11.4178L60.6137 9.23943L64.06 11.4178L63.0534 7.46677L66.1253 4.86215Z" fill="#FFD400"/>
</g>
<g clip-path="url(#clip3_1_355)">
<path d="M82.0428 4.86215L78.039 4.59893L76.5312 0.810852L75.0233 4.59893L71.0239 4.86215L74.0914 7.46677L73.0848 11.4178L76.5312 9.23943L79.9775 11.4178L78.9709 7.46677L82.0428 4.86215Z" fill="#FFD400"/>
</g>
<g clip-path="url(#clip4_1_355)">
<path d="M97.9578 4.86215L93.954 4.59893L92.4462 0.810852L90.9384 4.59893L86.939 4.86215L90.0065 7.46677L88.9999 11.4178L92.4462 9.23943L95.8925 11.4178L94.8859 7.46677L97.9578 4.86215Z" fill="#FFD400"/>
</g>
<defs>
<clipPath id="clip0_1_355">
<rect width="54.8831" height="54.8831" fill="white" transform="translate(0.407471 0.604187)"/>
</clipPath>
<clipPath id="clip1_1_355">
<rect width="54.8831" height="54.8831" fill="white" transform="translate(16.3235 0.604187)"/>
</clipPath>
<clipPath id="clip2_1_355">
<rect width="54.8831" height="54.8831" fill="white" transform="translate(32.2393 0.604187)"/>
</clipPath>
<clipPath id="clip3_1_355">
<rect width="54.8831" height="54.8831" fill="white" transform="translate(48.1558 0.604187)"/>
</clipPath>
<clipPath id="clip4_1_355">
<rect width="54.8831" height="54.8831" fill="white" transform="translate(64.0713 0.604187)"/>
</clipPath>
</defs>
</svg>
