<svg width="54" height="57" viewBox="0 0 54 57" fill="none" xmlns="http://www.w3.org/2000/svg">
<g clip-path="url(#clip0_1_567)">
<path d="M3.44702 27.2165C11.3437 27.3418 19.1533 25.5536 26.2087 22.0048C32.3657 18.9205 37.8023 14.5711 42.1632 9.24121" stroke="white" stroke-width="5.84995" stroke-linecap="round" stroke-linejoin="round"/>
<path d="M11.5522 44.6082C16.2175 38.8691 22.1232 34.2619 28.8253 31.134C35.5274 28.0057 42.8515 26.4378 50.247 26.5479" stroke="white" stroke-width="5.84995" stroke-linecap="round" stroke-linejoin="round"/>
<path d="M13.4309 7.73022C18.5962 11.5964 22.9358 16.4568 26.1945 22.0254C27.8058 24.7194 29.1386 27.5704 30.1725 30.5345C32.3268 36.61 33.2595 43.0511 32.9167 49.4884" stroke="white" stroke-width="5.84995" stroke-linecap="round" stroke-linejoin="round"/>
<path d="M26.8468 50.2774C39.7703 50.2774 50.2466 39.801 50.2466 26.8776C50.2466 13.9542 39.7703 3.47778 26.8468 3.47778C13.9235 3.47778 3.44702 13.9542 3.44702 26.8776C3.44702 39.801 13.9235 50.2774 26.8468 50.2774Z" stroke="white" stroke-width="5.84995" stroke-linecap="round" stroke-linejoin="round"/>
</g>
<defs>
<clipPath id="clip0_1_567">
<rect width="52.6496" height="55.5745" fill="white" transform="translate(0.520508 0.541504)"/>
</clipPath>
</defs>
</svg>
