<svg width="19" height="20" viewBox="0 0 19 20" fill="none" xmlns="http://www.w3.org/2000/svg">
<path d="M16.6494 9.62101C15.1689 6.01726 12.3837 3.78125 9.37871 3.78125C6.3737 3.78125 3.58857 6.01726 2.10806 9.62101C2.06771 9.71796 2.04688 9.82259 2.04688 9.92837C2.04688 10.0341 2.06771 10.1388 2.10806 10.2357C3.58857 13.8394 6.3737 16.0755 9.37871 16.0755C12.3837 16.0755 15.1689 13.8394 16.6494 10.2357C16.6897 10.1388 16.7106 10.0341 16.7106 9.92837C16.7106 9.82259 16.6897 9.71796 16.6494 9.62101ZM9.37871 14.5387C7.05533 14.5387 4.85654 12.7791 3.58857 9.92837C4.85654 7.07764 7.05533 5.31803 9.37871 5.31803C11.7021 5.31803 13.9009 7.07764 15.1689 9.92837C13.9009 12.7791 11.7021 14.5387 9.37871 14.5387ZM9.37871 6.85481C8.79888 6.85481 8.23206 7.03507 7.74994 7.3728C7.26782 7.71052 6.89206 8.19055 6.67016 8.75216C6.44827 9.31379 6.39021 9.93177 6.50333 10.528C6.61645 11.1242 6.89567 11.6719 7.30567 12.1017C7.71568 12.5315 8.23806 12.8243 8.80677 12.9429C9.37546 13.0615 9.96493 13.0006 10.5006 12.768C11.0363 12.5353 11.4942 12.1414 11.8163 11.6359C12.1385 11.1305 12.3104 10.5363 12.3104 9.92837C12.3104 9.11321 12.0016 8.33143 11.4518 7.75503C10.9019 7.17863 10.1562 6.85481 9.37871 6.85481ZM9.37871 11.4651C9.08879 11.4651 8.80538 11.375 8.56433 11.2062C8.32327 11.0373 8.13538 10.7973 8.02444 10.5165C7.91349 10.2357 7.88446 9.92667 7.94102 9.62856C7.99758 9.33045 8.13719 9.05662 8.3422 8.84171C8.54719 8.62678 8.80839 8.48041 9.09274 8.42111C9.37709 8.36182 9.67182 8.39225 9.93967 8.50857C10.2075 8.62488 10.4365 8.82185 10.5975 9.07458C10.7586 9.3273 10.8446 9.62442 10.8446 9.92837C10.8446 10.3359 10.6901 10.7268 10.4152 11.015C10.1403 11.3032 9.76748 11.4651 9.37871 11.4651Z" fill="#BAC1CE"/>
</svg>
