<svg width="26" height="25" viewBox="0 0 26 25" fill="none" xmlns="http://www.w3.org/2000/svg">
<g clip-path="url(#clip0_30_50)">
<path d="M22.361 0.262695H3.88374C2.18538 0.262695 0.804199 1.64387 0.804199 3.34224V21.8195C0.804199 23.5179 2.18538 24.8991 3.88374 24.8991H22.361C24.0594 24.8991 25.4406 23.5179 25.4406 21.8195V3.34224C25.4406 1.64387 24.0594 0.262695 22.361 0.262695Z" fill="#1976D2"/>
<path fill-rule="evenodd" clip-rule="evenodd" d="M21.5908 12.5807H17.7413V9.50115C17.7413 8.6512 18.4312 8.73127 19.2811 8.73127H20.8209V4.88184H17.7413C16.5162 4.88184 15.3413 5.36851 14.475 6.2348C13.6087 7.10109 13.122 8.27604 13.122 9.50115V12.5807H10.0425V16.4301H13.122V24.8989H17.7413V16.4301H20.051L21.5908 12.5807Z" fill="#FAFAFA"/>
</g>
<defs>
<clipPath id="clip0_30_50">
<rect width="24.6364" height="24.6364" fill="white" transform="translate(0.803711 0.262695)"/>
</clipPath>
</defs>
</svg>
