<svg width="37" height="37" viewBox="0 0 37 37" fill="none" xmlns="http://www.w3.org/2000/svg">
<path d="M17.5675 2.37765C17.4427 2.39324 17.0528 2.44783 16.7097 2.49461C13.0992 2.97029 9.70709 5.17712 7.71859 8.34312C4.95031 12.7412 5.16865 18.5429 8.24106 22.6602C8.73233 23.3152 17.3257 33.3357 17.8872 33.9126C18.1757 34.2089 18.2771 34.2637 18.5344 34.2637C18.7293 34.2637 18.9087 34.2012 19.0179 34.1076C19.1894 33.9516 27.8608 23.8924 28.5626 23.0346C30.5198 20.6327 31.5493 17.225 31.2685 14.1214C31.1048 12.3513 30.7694 11.127 30.0443 9.60639C28.2272 5.81655 24.7494 3.21202 20.5775 2.51801C19.8991 2.40104 17.9963 2.31526 17.5675 2.37765ZM20.8426 4.19457C23.8059 4.84962 26.3714 6.62755 27.9934 9.1619C28.6094 10.1288 29.1786 11.5247 29.4671 12.7724C29.6699 13.6457 29.7479 15.6966 29.6231 16.609C29.3502 18.5429 28.5861 20.3754 27.4476 21.857C26.8315 22.6602 18.6202 32.1971 18.5422 32.1971C18.4408 32.1971 9.70709 22.0052 9.2782 21.3813C8.51398 20.2584 7.88235 18.7612 7.57042 17.303C7.36768 16.3594 7.37548 13.8797 7.57823 12.9361C8.43601 8.98255 11.1653 5.87114 14.9239 4.56887C15.5946 4.33493 16.4289 4.13998 17.2555 4.01522C17.856 3.92944 20.1564 4.03862 20.8426 4.19457Z" fill="#FF4A31"/>
<path d="M17.8401 9.57473C15.025 9.97244 12.9741 12.2962 12.9741 15.1191C12.9741 17.2947 14.1282 19.1507 16.0855 20.1098C16.9511 20.5387 17.5593 20.6791 18.5419 20.6791C19.5244 20.6791 20.1327 20.5387 20.9983 20.1098C22.9555 19.1507 24.1096 17.2947 24.1019 15.1191C24.1019 14.1366 23.9615 13.5361 23.5404 12.6627C22.9867 11.5476 22.1134 10.6665 20.9827 10.0972C20.1327 9.6761 18.7758 9.44996 17.8401 9.57473ZM19.5166 11.2591C21.2712 11.7192 22.5189 13.3178 22.5189 15.1191C22.5189 17.3259 20.7253 19.0961 18.5029 19.0961C16.3507 19.0961 14.5649 17.2869 14.5649 15.1191C14.5649 13.3412 15.8048 11.7348 17.5359 11.2669C18.0974 11.1187 18.9474 11.1109 19.5166 11.2591Z" fill="#FF4A31"/>
</svg>
