<svg width="26" height="26" viewBox="0 0 26 26" fill="none" xmlns="http://www.w3.org/2000/svg">
<g clip-path="url(#clip0_30_40)">
<path d="M25.2916 13.0615C25.2916 12.0521 25.2097 11.3156 25.0325 10.5518H13.5068V15.1074H20.2721C20.1358 16.2396 19.3992 17.9445 17.7624 19.0902L17.7395 19.2427L21.3837 22.0659L21.6362 22.0911C23.9549 19.9496 25.2916 16.7988 25.2916 13.0615Z" fill="#4285F4"/>
<path d="M13.5065 25.0638C16.8209 25.0638 19.6035 23.9725 21.6359 22.0903L17.7621 19.0895C16.7256 19.8124 15.3342 20.3171 13.5065 20.3171C10.2602 20.3171 7.50502 18.1757 6.52286 15.2158L6.37889 15.228L2.58959 18.1606L2.54004 18.2984C4.55871 22.3085 8.70524 25.0638 13.5065 25.0638Z" fill="#34A853"/>
<path d="M6.52317 15.2159C6.26401 14.4521 6.11404 13.6337 6.11404 12.788C6.11404 11.9423 6.26401 11.124 6.50953 10.3601L6.50267 10.1975L2.66588 7.21777L2.54035 7.27748C1.70836 8.94157 1.23096 10.8103 1.23096 12.788C1.23096 14.7658 1.70836 16.6344 2.54035 18.2985L6.52317 15.2159Z" fill="#FBBC05"/>
<path d="M13.5065 5.25884C15.8116 5.25884 17.3665 6.25455 18.2531 7.08664L21.7177 3.70393C19.5899 1.72616 16.8209 0.512207 13.5065 0.512207C8.70524 0.512207 4.55871 3.26744 2.54004 7.27752L6.50922 10.3602C7.50502 7.40033 10.2602 5.25884 13.5065 5.25884Z" fill="#EB4335"/>
</g>
<defs>
<clipPath id="clip0_30_40">
<rect width="24.6364" height="24.6364" fill="white" transform="translate(0.952637 0.512207)"/>
</clipPath>
</defs>
</svg>
