<svg width="27" height="26" viewBox="0 0 27 26" fill="none" xmlns="http://www.w3.org/2000/svg">
<g clip-path="url(#clip0_30_58)">
<path d="M24.6101 0.637207H1.66824C0.876339 0.637207 0.234375 1.25581 0.234375 2.01888V24.1258C0.234375 24.8888 0.876339 25.5075 1.66824 25.5075H24.6101C25.402 25.5075 26.044 24.8888 26.044 24.1258V2.01888C26.044 1.25581 25.402 0.637207 24.6101 0.637207Z" fill="#117EB8"/>
<path fill-rule="evenodd" clip-rule="evenodd" d="M4.94367 10.2567H8.3932V20.9515H4.94367V10.2567V10.2567ZM6.66897 4.94029C7.77197 4.94029 8.66814 5.80384 8.66814 6.86669C8.66814 7.93059 7.77197 8.79449 6.66897 8.79449C6.40315 8.79934 6.139 8.75307 5.89196 8.65841C5.64491 8.56373 5.41993 8.42256 5.23017 8.24314C5.0404 8.06371 4.88967 7.84963 4.78676 7.61341C4.68386 7.37718 4.63086 7.12357 4.63086 6.86739C4.63086 6.6112 4.68386 6.35759 4.78676 6.12136C4.88967 5.88515 5.0404 5.67106 5.23017 5.49164C5.41993 5.31221 5.64491 5.17103 5.89196 5.07637C6.139 4.9817 6.40315 4.93544 6.66897 4.94029V4.94029ZM10.5569 10.2563H13.8655V11.7178H13.9114C14.3721 10.877 15.4972 9.99067 17.1753 9.99067C20.6682 9.99067 21.3134 12.2059 21.3134 15.0856V20.9515H17.866V15.7505C17.866 14.5105 17.8424 12.915 16.0736 12.915C14.2789 12.915 14.0032 14.2659 14.0032 15.6611V20.9515H10.5565V10.2567L10.5569 10.2563Z" fill="white"/>
</g>
<defs>
<clipPath id="clip0_30_58">
<rect width="25.8096" height="24.8703" fill="white" transform="translate(0.234375 0.637207)"/>
</clipPath>
</defs>
</svg>
