<svg width="74" height="74" viewBox="0 0 74 74" fill="none" xmlns="http://www.w3.org/2000/svg">
<g clip-path="url(#clip0_1_101)">
<path fill-rule="evenodd" clip-rule="evenodd" d="M0.331055 17.5887C0.331055 16.6801 0.691963 15.8088 1.33438 15.1664C1.97681 14.524 2.84812 14.1631 3.75664 14.1631H69.9846C70.8931 14.1631 71.7644 14.524 72.4068 15.1664C73.0492 15.8088 73.4102 16.6801 73.4102 17.5887C73.4102 18.4972 73.0492 19.3685 72.4068 20.0109C71.7644 20.6533 70.8931 21.0143 69.9846 21.0143H3.75664C2.84812 21.0143 1.97681 20.6533 1.33438 20.0109C0.691963 19.3685 0.331055 18.4972 0.331055 17.5887ZM0.331055 37.0003C0.331055 36.0918 0.691963 35.2205 1.33438 34.5781C1.97681 33.9356 2.84812 33.5747 3.75664 33.5747H69.9846C70.8931 33.5747 71.7644 33.9356 72.4068 34.5781C73.0492 35.2205 73.4102 36.0918 73.4102 37.0003C73.4102 37.9088 73.0492 38.7801 72.4068 39.4226C71.7644 40.065 70.8931 40.4259 69.9846 40.4259H3.75664C2.84812 40.4259 1.97681 40.065 1.33438 39.4226C0.691963 38.7801 0.331055 37.9088 0.331055 37.0003ZM3.75664 52.9864C2.84812 52.9864 1.97681 53.3473 1.33438 53.9897C0.691963 54.6321 0.331055 55.5034 0.331055 56.4119C0.331055 57.3205 0.691963 58.1918 1.33438 58.8342C1.97681 59.4766 2.84812 59.8375 3.75664 59.8375H69.9846C70.8931 59.8375 71.7644 59.4766 72.4068 58.8342C73.0492 58.1918 73.4102 57.3205 73.4102 56.4119C73.4102 55.5034 73.0492 54.6321 72.4068 53.9897C71.7644 53.3473 70.8931 52.9864 69.9846 52.9864H3.75664Z" fill="white"/>
</g>
<defs>
<clipPath id="clip0_1_101">
<rect width="73.0791" height="73.0791" fill="white" transform="translate(0.331055 0.460449)"/>
</clipPath>
</defs>
</svg>
