<svg width="54" height="57" viewBox="0 0 54 57" fill="none" xmlns="http://www.w3.org/2000/svg">
<g clip-path="url(#clip0_1_558)">
<path d="M16.5568 31.2509C15.8975 29.8858 15.5695 28.3845 15.5995 26.8688C15.7321 23.923 17.0266 21.1497 19.1995 19.1562C21.3724 17.1627 24.2467 16.1114 27.1931 16.2326C29.3736 16.1756 31.5263 16.7315 33.4065 17.837C35.2867 18.9426 36.8191 20.5535 37.8294 22.4867C38.4887 23.8518 38.8166 25.3532 38.7867 26.8688C38.6542 29.8148 37.3596 32.5879 35.1867 34.5816C33.0137 36.575 30.1393 37.6262 27.1931 37.5051C25.44 37.5139 23.7057 37.1439 22.109 36.4202" stroke="white" stroke-width="5.84995" stroke-linecap="round" stroke-linejoin="round"/>
<path d="M18.9834 48.7969L22.1105 36.4377L24.2164 28.1201L25.0674 24.759" stroke="white" stroke-width="5.84995" stroke-linecap="round" stroke-linejoin="round"/>
<path d="M27.1984 50.2774C40.1218 50.2774 50.5982 39.801 50.5982 26.8776C50.5982 13.9542 40.1218 3.47778 27.1984 3.47778C14.275 3.47778 3.79858 13.9542 3.79858 26.8776C3.79858 39.801 14.275 50.2774 27.1984 50.2774Z" stroke="white" stroke-width="5.84995" stroke-linecap="round" stroke-linejoin="round"/>
</g>
<defs>
<clipPath id="clip0_1_558">
<rect width="52.6496" height="55.5745" fill="white" transform="translate(0.878906 0.541504)"/>
</clipPath>
</defs>
</svg>
